<svg xmlns="http://www.w3.org/2000/svg" version="1.1" xmlns:xlink="http://www.w3.org/1999/xlink" xmlns:svgjs="http://svgjs.dev/svgjs" width="560" height="800" preserveAspectRatio="none" viewBox="0 0 560 800">
    <g mask="url(&quot;#SvgjsMask2613&quot;)" fill="none">
        <rect width="560" height="800" x="0" y="0" fill="url(&quot;#SvgjsLinearGradient2614&quot;)"></rect>
        <path d="M49.05 -57.46L125.26 -13.46L125.26 74.54L49.05 118.54L-27.16 74.54L-27.16 -13.46zM125.26 74.54L201.47 118.54L201.47 206.54L125.26 250.54L49.05 206.54L49.05 118.54zM49.05 206.54L125.26 250.54L125.26 338.54L49.05 382.54L-27.16 338.54L-27.16 250.54zM125.26 338.54L201.47 382.54L201.47 470.54L125.26 514.54L49.05 470.54L49.05 382.54zM49.05 470.54L125.26 514.54L125.26 602.54L49.05 646.54L-27.16 602.54L-27.16 514.54zM277.69 338.54L353.9 382.54L353.9 470.54L277.69 514.54L201.47 470.54L201.47 382.54zM353.9 -57.46L430.11 -13.46L430.11 74.54L353.9 118.54L277.69 74.54L277.69 -13.46zM430.11 74.54L506.32 118.54L506.32 206.54L430.11 250.54L353.9 206.54L353.9 118.54zM353.9 470.54L430.11 514.54L430.11 602.54L353.9 646.54L277.69 602.54L277.69 514.54zM353.9 734.54L430.11 778.54L430.11 866.54L353.9 910.54L277.69 866.54L277.69 778.54zM506.32 470.54L582.54 514.54L582.54 602.54L506.32 646.54L430.11 602.54L430.11 514.54zM582.54 602.54L658.75 646.54L658.75 734.54L582.54 778.54L506.32 734.54L506.32 646.54z" stroke="rgba(54, 54, 54, 0.18)" stroke-width="2"></path>
        <path d="M40.25 -57.46 a8.8 8.8 0 1 0 17.6 0 a8.8 8.8 0 1 0 -17.6 0zM116.46 -13.46 a8.8 8.8 0 1 0 17.6 0 a8.8 8.8 0 1 0 -17.6 0zM116.46 74.54 a8.8 8.8 0 1 0 17.6 0 a8.8 8.8 0 1 0 -17.6 0zM40.25 118.54 a8.8 8.8 0 1 0 17.6 0 a8.8 8.8 0 1 0 -17.6 0zM-35.96 74.54 a8.8 8.8 0 1 0 17.6 0 a8.8 8.8 0 1 0 -17.6 0zM-35.96 -13.46 a8.8 8.8 0 1 0 17.6 0 a8.8 8.8 0 1 0 -17.6 0zM192.67 118.54 a8.8 8.8 0 1 0 17.6 0 a8.8 8.8 0 1 0 -17.6 0zM192.67 206.54 a8.8 8.8 0 1 0 17.6 0 a8.8 8.8 0 1 0 -17.6 0zM116.46 250.54 a8.8 8.8 0 1 0 17.6 0 a8.8 8.8 0 1 0 -17.6 0zM40.25 206.54 a8.8 8.8 0 1 0 17.6 0 a8.8 8.8 0 1 0 -17.6 0zM116.46 338.54 a8.8 8.8 0 1 0 17.6 0 a8.8 8.8 0 1 0 -17.6 0zM40.25 382.54 a8.8 8.8 0 1 0 17.6 0 a8.8 8.8 0 1 0 -17.6 0zM-35.96 338.54 a8.8 8.8 0 1 0 17.6 0 a8.8 8.8 0 1 0 -17.6 0zM-35.96 250.54 a8.8 8.8 0 1 0 17.6 0 a8.8 8.8 0 1 0 -17.6 0zM192.67 382.54 a8.8 8.8 0 1 0 17.6 0 a8.8 8.8 0 1 0 -17.6 0zM192.67 470.54 a8.8 8.8 0 1 0 17.6 0 a8.8 8.8 0 1 0 -17.6 0zM116.46 514.54 a8.8 8.8 0 1 0 17.6 0 a8.8 8.8 0 1 0 -17.6 0zM40.25 470.54 a8.8 8.8 0 1 0 17.6 0 a8.8 8.8 0 1 0 -17.6 0zM116.46 602.54 a8.8 8.8 0 1 0 17.6 0 a8.8 8.8 0 1 0 -17.6 0zM40.25 646.54 a8.8 8.8 0 1 0 17.6 0 a8.8 8.8 0 1 0 -17.6 0zM-35.96 602.54 a8.8 8.8 0 1 0 17.6 0 a8.8 8.8 0 1 0 -17.6 0zM-35.96 514.54 a8.8 8.8 0 1 0 17.6 0 a8.8 8.8 0 1 0 -17.6 0zM268.89 338.54 a8.8 8.8 0 1 0 17.6 0 a8.8 8.8 0 1 0 -17.6 0zM345.1 382.54 a8.8 8.8 0 1 0 17.6 0 a8.8 8.8 0 1 0 -17.6 0zM345.1 470.54 a8.8 8.8 0 1 0 17.6 0 a8.8 8.8 0 1 0 -17.6 0zM268.89 514.54 a8.8 8.8 0 1 0 17.6 0 a8.8 8.8 0 1 0 -17.6 0zM345.1 -57.46 a8.8 8.8 0 1 0 17.6 0 a8.8 8.8 0 1 0 -17.6 0zM421.31 -13.46 a8.8 8.8 0 1 0 17.6 0 a8.8 8.8 0 1 0 -17.6 0zM421.31 74.54 a8.8 8.8 0 1 0 17.6 0 a8.8 8.8 0 1 0 -17.6 0zM345.1 118.54 a8.8 8.8 0 1 0 17.6 0 a8.8 8.8 0 1 0 -17.6 0zM268.89 74.54 a8.8 8.8 0 1 0 17.6 0 a8.8 8.8 0 1 0 -17.6 0zM268.89 -13.46 a8.8 8.8 0 1 0 17.6 0 a8.8 8.8 0 1 0 -17.6 0zM497.52 118.54 a8.8 8.8 0 1 0 17.6 0 a8.8 8.8 0 1 0 -17.6 0zM497.52 206.54 a8.8 8.8 0 1 0 17.6 0 a8.8 8.8 0 1 0 -17.6 0zM421.31 250.54 a8.8 8.8 0 1 0 17.6 0 a8.8 8.8 0 1 0 -17.6 0zM345.1 206.54 a8.8 8.8 0 1 0 17.6 0 a8.8 8.8 0 1 0 -17.6 0zM421.31 514.54 a8.8 8.8 0 1 0 17.6 0 a8.8 8.8 0 1 0 -17.6 0zM421.31 602.54 a8.8 8.8 0 1 0 17.6 0 a8.8 8.8 0 1 0 -17.6 0zM345.1 646.54 a8.8 8.8 0 1 0 17.6 0 a8.8 8.8 0 1 0 -17.6 0zM268.89 602.54 a8.8 8.8 0 1 0 17.6 0 a8.8 8.8 0 1 0 -17.6 0zM345.1 734.54 a8.8 8.8 0 1 0 17.6 0 a8.8 8.8 0 1 0 -17.6 0zM421.31 778.54 a8.8 8.8 0 1 0 17.6 0 a8.8 8.8 0 1 0 -17.6 0zM421.31 866.54 a8.8 8.8 0 1 0 17.6 0 a8.8 8.8 0 1 0 -17.6 0zM345.1 910.54 a8.8 8.8 0 1 0 17.6 0 a8.8 8.8 0 1 0 -17.6 0zM268.89 866.54 a8.8 8.8 0 1 0 17.6 0 a8.8 8.8 0 1 0 -17.6 0zM268.89 778.54 a8.8 8.8 0 1 0 17.6 0 a8.8 8.8 0 1 0 -17.6 0zM497.52 470.54 a8.8 8.8 0 1 0 17.6 0 a8.8 8.8 0 1 0 -17.6 0zM573.74 514.54 a8.8 8.8 0 1 0 17.6 0 a8.8 8.8 0 1 0 -17.6 0zM573.74 602.54 a8.8 8.8 0 1 0 17.6 0 a8.8 8.8 0 1 0 -17.6 0zM497.52 646.54 a8.8 8.8 0 1 0 17.6 0 a8.8 8.8 0 1 0 -17.6 0zM649.95 646.54 a8.8 8.8 0 1 0 17.6 0 a8.8 8.8 0 1 0 -17.6 0zM649.95 734.54 a8.8 8.8 0 1 0 17.6 0 a8.8 8.8 0 1 0 -17.6 0zM573.74 778.54 a8.8 8.8 0 1 0 17.6 0 a8.8 8.8 0 1 0 -17.6 0zM497.52 734.54 a8.8 8.8 0 1 0 17.6 0 a8.8 8.8 0 1 0 -17.6 0z" fill="rgba(54, 54, 54, 0.18)"></path>
    </g>
    <defs>
        <mask id="SvgjsMask2613">
            <rect width="560" height="800" fill="#ffffff"></rect>
        </mask>
        <linearGradient x1="-10.71%" y1="7.5%" x2="110.71%" y2="92.5%" gradientUnits="userSpaceOnUse" id="SvgjsLinearGradient2614">
            <stop stop-color="rgba(15, 118, 105, 1)" offset="0"></stop>
            <stop stop-color="rgba(4, 47, 46, 1)" offset="1"></stop>
        </linearGradient>
    </defs>
</svg>